# xmcd
#
# Track frame offsets:
#	150
#	16703
#	32105
#	51083
#	67710
#	81133
#	95921
#	115604
#	131470
#	152541
#	170049
#	186200
#	204359
#	220092
#	238290
#	256051
#	272066
#	288027
#	307706
#	323849
#
# Disc length: 4537 seconds
#
# Revision: 3
# Processed by: cddbd v1.5.2PL0 Copyright (c) Steve Scherf et al.
# Submitted via: audiograbber 1.83.01
#
DISCID=0611b714
DTITLE=Various Artist - HP200716
DYEAR=2007
DGENRE=Top 40
TTITLE0=Kelly Clarkson - Never Again [Radio Version]
TTITLE1=Click Five - Jenny [Single Version]
TTITLE2=Bo Bice - Blades Of Glory [Radio Edit]
TTITLE3=Enrique Iglesias - Do You Know (The Ping Pong Song)
TTITLE4=Omarion - Beg For It
TTITLE5=Eve - Tambourine [Clean]
TTITLE6=Musiq Soulchild - Teachme [Album Version]
TTITLE7=Daddy Yankee f Fergie - Impacto (Remix) [Clean]
TTITLE8=Keith Anderson - Sunday Morning In America [Radio Edit]
TTITLE9=Carolyn Dawn Johnson - Got A Good Day
TTITLE10=Martina McBride - How I Feel [Single Edit]
TTITLE11=Keith Urban - I Told You So [Edit]
TTITLE12=Academy Is... - We've Got A Big Mess On Our Hands [Album Version]
TTITLE13=Ozzy Osbourne - I Don't Wanna Stop
TTITLE14=Saliva - Broken Sunday [Radio Edit]
TTITLE15=Bloc Party - The Prayer [Radio Edit]
TTITLE16=Lionel Richie - All Around The World [Bob Sinclar Remix - Radio Edit]
TTITLE17=Decemberadio - Least Of These [Radio Edit]
TTITLE18=All Star United - Jesus On The Radio
TTITLE19=Britt Nicole - You [Chr Version]
EXTD=
EXTT0=
EXTT1=
EXTT2=
EXTT3=
EXTT4=
EXTT5=
EXTT6=
EXTT7=
EXTT8=
EXTT9=
EXTT10=
EXTT11=
EXTT12=
EXTT13=
EXTT14=
EXTT15=
EXTT16=
EXTT17=
EXTT18=
EXTT19=
PLAYORDER=
